<?xml version="1.0" encoding="utf-8"?>
<!-- Generator: Adobe Illustrator 22.0.1, SVG Export Plug-In . SVG Version: 6.00 Build 0)  -->
<svg version="1.1" id="Layer_3" xmlns="http://www.w3.org/2000/svg" xmlns:xlink="http://www.w3.org/1999/xlink" x="0px" y="0px"
	 viewBox="0 0 64 64" style="enable-background:new 0 0 64 64;" xml:space="preserve">
<style type="text/css">
	.st0{fill:#FAF5F5;}
	.st1{fill:#63312D;}
	.st2{fill:#F9A287;}
	.st3{fill:#FCB7A4;}
	.st4{fill:#DB785A;}
	.st5{fill:#E0E0E0;}
	.st6{fill:#84DBFF;}
	.st7{fill:#EFC36A;}
	.st8{fill:#F9DD9D;}
	.st9{fill:#EEC26A;}
	.st10{fill:#A9EBFF;}
	.st11{fill:#52BADB;}
	.st12{fill:#FFFFFF;}
	.st13{fill:#F0EEEE;}
	.st14{fill:#BDBDBD;}
	.st15{fill:#E3DFDF;}
	.st16{fill:#FFE8BB;}
	.st17{fill:#FFF2D2;}
	.st18{fill:#D8C18F;}
	.st19{fill:#EAD194;}
	.st20{fill:#BFA064;}
	.st21{fill:#CCCCCC;}
	.st22{fill:#C5F1FF;}
	.st23{fill:#D3A553;}
	.st24{fill:#67C7E5;}
</style>
<g>
	<path class="st6" d="M9.737,60.085l0-11.978c0-1.929-0.576-3.805-1.605-5.437c-2.197-3.482-3.874-7.063-4.603-11.272
		C2.651,26.33,3.035,20.965,5.07,16.209C8.876,7.312,18.513,3.033,27.877,4.074c11.599,1.289,19.128,11.117,19.61,22.511l4.75,13.25
		h-6.25v9.188c0,2.796-2.267,5.063-5.063,5.063H29.987v6H9.737z"/>
	<path class="st10" d="M11.86,60.085l0-11.189c0-1.929-0.576-3.805-1.605-5.437c-2.197-3.482-3.874-7.063-4.603-11.272
		c-0.878-5.068-0.494-10.433,1.541-15.189C10.998,8.101,20.635,3.823,30,4.863c1.422,0.158,2.781,0.448,4.075,0.85
		c-1.904-0.826-3.974-1.392-6.198-1.639C18.513,3.033,8.875,7.312,5.07,16.209C3.035,20.965,2.651,26.33,3.529,31.398
		c0.729,4.209,2.406,7.79,4.603,11.272c1.029,1.631,1.606,3.508,1.606,5.437v11.978H11.86z"/>
	<path class="st1" d="M29.987,60.585H9.737c-0.276,0-0.5-0.224-0.5-0.5V48.107c0-1.798-0.528-3.585-1.528-5.17
		c-2.529-4.01-4.014-7.649-4.672-11.453C2.085,25.992,2.629,20.642,4.61,16.012C8.28,7.432,17.649,2.433,27.933,3.577
		c11.265,1.251,19.501,10.667,20.051,22.91l4.725,13.179c0.055,0.153,0.032,0.324-0.062,0.457c-0.093,0.133-0.246,0.212-0.409,0.212
		h-5.75v8.688c0,3.067-2.495,5.563-5.563,5.563H30.487v5.5C30.487,60.361,30.264,60.585,29.987,60.585z M10.237,59.585h19.25v-5.5
		c0-0.276,0.224-0.5,0.5-0.5h10.937c2.516,0,4.563-2.047,4.563-4.563v-9.188c0-0.276,0.224-0.5,0.5-0.5h5.54l-4.51-12.581
		c-0.017-0.048-0.027-0.098-0.029-0.148C46.49,14.831,38.609,5.769,27.822,4.571C17.985,3.475,9.025,8.234,5.529,16.405
		c-1.904,4.452-2.425,9.606-1.507,14.907c0.644,3.722,2.042,7.142,4.533,11.091c1.101,1.745,1.683,3.717,1.683,5.704V59.585z"/>
	<g>
		<path class="st11" d="M56.17,26.585C55.688,15.191,48.158,5.363,36.56,4.074h-8.682c11.599,1.289,19.128,11.117,19.61,22.511
			l4.75,13.25h-6.25v9.188c0,2.796-2.267,5.063-5.063,5.063h8.682c2.796,0,5.063-2.267,5.063-5.063v-9.188h6.25L56.17,26.585z"/>
		<rect x="29.987" y="54.085" class="st11" width="8.682" height="6"/>
	</g>
	<g>
		<path class="st1" d="M49.607,54.585h-8.682c-0.276,0-0.5-0.224-0.5-0.5s0.224-0.5,0.5-0.5c2.516,0,4.563-2.047,4.563-4.563v-9.188
			c0-0.276,0.224-0.5,0.5-0.5h5.54l-4.51-12.581c-0.017-0.048-0.027-0.098-0.029-0.148C46.49,14.831,38.609,5.769,27.822,4.571
			c-0.264-0.029-0.458-0.26-0.444-0.525c0.015-0.265,0.233-0.472,0.499-0.472h8.682c11.32,1.254,19.556,10.67,20.106,22.913
			l4.725,13.179c0.055,0.153,0.032,0.324-0.062,0.457c-0.093,0.133-0.246,0.212-0.409,0.212h-5.75v8.688
			C55.169,52.09,52.674,54.585,49.607,54.585z M44.103,53.585h5.503c2.516,0,4.563-2.047,4.563-4.563v-9.188
			c0-0.276,0.224-0.5,0.5-0.5h5.54l-4.51-12.581c-0.017-0.048-0.027-0.098-0.029-0.148C55.172,14.831,47.291,5.769,36.504,4.571
			l-4.019,0.001c8.873,2.956,15.025,11.391,15.498,21.915l4.725,13.179c0.055,0.153,0.032,0.324-0.062,0.457
			c-0.093,0.133-0.246,0.212-0.409,0.212h-5.75v8.688C46.487,50.909,45.543,52.579,44.103,53.585z"/>
		<path class="st1" d="M38.669,60.585h-8.682c-0.276,0-0.5-0.224-0.5-0.5v-6c0-0.276,0.224-0.5,0.5-0.5h8.682
			c0.276,0,0.5,0.224,0.5,0.5v6C39.169,60.361,38.946,60.585,38.669,60.585z M30.487,59.585h7.682v-5h-7.682V59.585z"/>
	</g>
	<rect x="52.237" y="39.335" class="st1" width="2.432" height="1"/>
	<path class="st1" d="M27.003,15.21h-8.091c-0.276,0-0.5-0.224-0.5-0.5v-10h1v9.5h7.591V15.21z"/>
	<path class="st1" d="M14.253,22.21h-1V11.46c0-0.276,0.224-0.5,0.5-0.5h5.159v1h-4.659V22.21z"/>
	<circle class="st0" cx="28.284" cy="14.71" r="1.5"/>
	<circle class="st0" cx="38.67" cy="21.116" r="1.5"/>
	<circle class="st0" cx="13.753" cy="23.502" r="1.5"/>
	<circle class="st0" cx="15.253" cy="38.71" r="1.5"/>
	<circle class="st0" cx="25.544" cy="37.21" r="1.5"/>
	<circle class="st0" cx="25.544" cy="52.168" r="1.5"/>
	<circle class="st0" cx="41.419" cy="37.21" r="1.5"/>
	<path class="st1" d="M28.284,16.71c-1.103,0-2-0.897-2-2s0.897-2,2-2s2,0.897,2,2S29.387,16.71,28.284,16.71z M28.284,13.71
		c-0.551,0-1,0.449-1,1s0.449,1,1,1s1-0.449,1-1S28.835,13.71,28.284,13.71z"/>
	<path class="st1" d="M38.669,23.116c-1.103,0-2-0.897-2-2s0.897-2,2-2s2,0.897,2,2S39.772,23.116,38.669,23.116z M38.669,20.116
		c-0.551,0-1,0.449-1,1s0.449,1,1,1s1-0.449,1-1S39.221,20.116,38.669,20.116z"/>
	<path class="st1" d="M13.753,25.501c-1.103,0-2-0.897-2-2s0.897-2,2-2s2,0.897,2,2S14.856,25.501,13.753,25.501z M13.753,22.501
		c-0.551,0-1,0.449-1,1s0.449,1,1,1s1-0.449,1-1S14.304,22.501,13.753,22.501z"/>
	<path class="st1" d="M15.253,40.71c-1.103,0-2-0.897-2-2s0.897-2,2-2s2,0.897,2,2S16.356,40.71,15.253,40.71z M15.253,37.71
		c-0.551,0-1,0.449-1,1s0.449,1,1,1s1-0.449,1-1S15.804,37.71,15.253,37.71z"/>
	<circle class="st0" cx="15.253" cy="53.252" r="1.5"/>
	<path class="st1" d="M15.253,55.251c-1.103,0-2-0.897-2-2s0.897-2,2-2s2,0.897,2,2S16.356,55.251,15.253,55.251z M15.253,52.251
		c-0.551,0-1,0.449-1,1s0.449,1,1,1s1-0.449,1-1S15.804,52.251,15.253,52.251z"/>
	<path class="st1" d="M25.544,39.21c-1.103,0-2-0.897-2-2s0.897-2,2-2s2,0.897,2,2S26.647,39.21,25.544,39.21z M25.544,36.21
		c-0.551,0-1,0.449-1,1s0.449,1,1,1s1-0.449,1-1S26.096,36.21,25.544,36.21z"/>
	<path class="st1" d="M25.544,54.168c-1.103,0-2-0.897-2-2s0.897-2,2-2s2,0.897,2,2S26.647,54.168,25.544,54.168z M25.544,51.168
		c-0.551,0-1,0.449-1,1s0.449,1,1,1s1-0.449,1-1S26.096,51.168,25.544,51.168z"/>
	<path class="st1" d="M41.419,39.21c-1.103,0-2-0.897-2-2s0.897-2,2-2s2,0.897,2,2S42.522,39.21,41.419,39.21z M41.419,36.21
		c-0.551,0-1,0.449-1,1s0.449,1,1,1s1-0.449,1-1S41.971,36.21,41.419,36.21z"/>
	<path class="st1" d="M27.877,28.835h-4.541c-0.276,0-0.5-0.224-0.5-0.5v-9.75h-9.083v-1h9.583c0.276,0,0.5,0.224,0.5,0.5v9.75
		h3.541v-6.75c0-0.276,0.224-0.5,0.5-0.5h9.459v1h-8.959v6.75C28.377,28.611,28.154,28.835,27.877,28.835z"/>
	<path class="st1" d="M24.003,37.71h-5.091c-0.276,0-0.5-0.224-0.5-0.5v-7.63h-8.284c-0.276,0-0.5-0.224-0.5-0.5V18.585H4.362v-1
		h5.766c0.276,0,0.5,0.224,0.5,0.5V28.58h8.284c0.276,0,0.5,0.224,0.5,0.5v7.63h4.591V37.71z"/>
	<path class="st1" d="M15.753,37.21h-1v-4.375h-8.25c-0.276,0-0.5-0.224-0.5-0.5V23.71H3.26v-1h3.243c0.276,0,0.5,0.224,0.5,0.5
		v8.625h8.25c0.276,0,0.5,0.224,0.5,0.5V37.21z"/>
	<rect x="25.044" y="28.71" class="st1" width="1" height="4.438"/>
	<rect x="18.412" y="18.501" class="st1" width="1" height="7.583"/>
	<path class="st1" d="M34.828,15.335h-1V10.21h-9.784c-0.276,0-0.5-0.224-0.5-0.5V4.074h1V9.21h9.784c0.276,0,0.5,0.224,0.5,0.5
		V15.335z"/>
	<path class="st1" d="M42.003,35.71h-1v-6.875h-2.75v4.313c0,0.276-0.224,0.5-0.5,0.5h-5.25c-0.276,0-0.5-0.224-0.5-0.5v-7.729
		c0-0.276,0.224-0.5,0.5-0.5h14.833v1H33.003v6.729h4.25v-4.313c0-0.276,0.224-0.5,0.5-0.5h3.75c0.276,0,0.5,0.224,0.5,0.5V35.71z"
		/>
	<rect x="34.419" y="33.147" class="st1" width="1" height="5.563"/>
	<path class="st1" d="M15.753,52.168h-1v-8.333c0-0.276,0.224-0.5,0.5-0.5h5V37.21h1v6.625c0,0.276-0.224,0.5-0.5,0.5h-5V52.168z"/>
	<path class="st1" d="M24.044,52.668h-5.133c-0.276,0-0.5-0.224-0.5-0.5v-8.333h1v7.833h4.633V52.668z"/>
	<path class="st1" d="M24.753,48.501h-2.833v-1h2.333v-2.813c0-0.276,0.224-0.5,0.5-0.5h4.734v-2.438h-8.734v-1h9.234
		c0.276,0,0.5,0.224,0.5,0.5v3.438c0,0.276-0.224,0.5-0.5,0.5h-4.734v2.813C25.253,48.278,25.029,48.501,24.753,48.501z"/>
	<path class="st1" d="M11.086,40.751h-1V37.32H5.081v-1h5.505c0.276,0,0.5,0.224,0.5,0.5V40.751z"/>
</g>
</svg>
