<?xml version="1.0" encoding="utf-8"?>
<!-- Generator: Adobe Illustrator 24.0.0, SVG Export Plug-In . SVG Version: 6.00 Build 0)  -->
<svg version="1.1" xmlns="http://www.w3.org/2000/svg" xmlns:xlink="http://www.w3.org/1999/xlink" x="0px" y="0px"
	 viewBox="0 0 64 64" enable-background="new 0 0 64 64" xml:space="preserve">
<g id="Captions">
</g>
<g id="Icons">
	<g>
		<g>
			<path fill="#00A0C8" d="M34,40h-4v-4c0-3.309,2.691-6,6-6h18c1.103,0,2-0.897,2-2h4c0,3.309-2.691,6-6,6H36c-1.103,0-2,0.897-2,2
				V40z"/>
		</g>
		<path fill="#00A0C8" d="M35.707,7.293l-3-3c-0.391-0.391-1.023-0.391-1.414,0l-3,3c-0.286,0.286-0.372,0.716-0.217,1.09
			C28.231,8.756,28.596,9,29,9h1v3c0,1.103-0.897,2-2,2H10c-3.309,0-6,2.691-6,6h4c0-1.103,0.897-2,2-2h18c3.309,0,6-2.691,6-6V9h1
			c0.404,0,0.77-0.244,0.924-0.617C36.079,8.009,35.993,7.579,35.707,7.293z"/>
		<path fill="#FAB400" d="M51.707,7.293l-3-3c-0.391-0.391-1.023-0.391-1.414,0l-3,3c-0.286,0.286-0.372,0.716-0.217,1.09
			C44.23,8.756,44.596,9,45,9h1v27h4V9h1c0.404,0,0.77-0.244,0.924-0.617C52.079,8.009,51.993,7.579,51.707,7.293z"/>
		<path fill="#C80A50" d="M19.707,7.293l-3-3c-0.391-0.391-1.023-0.391-1.414,0l-3,3c-0.286,0.286-0.372,0.716-0.217,1.09
			C12.231,8.756,12.596,9,13,9h1v27h4V9h1c0.404,0,0.769-0.244,0.924-0.617C20.079,8.009,19.993,7.579,19.707,7.293z"/>
		<g>
			<path fill="#00A0C8" d="M60,28h-4c0-1.103-0.897-2-2-2H10c-3.309,0-6-2.691-6-6h4c0,1.103,0.897,2,2,2h44
				C57.309,22,60,24.691,60,28z"/>
		</g>
		<g>
			<g>
				<g>
					<path fill="#C80A50" d="M33,36h-2c-2.761,0-5,2.239-5,5v10c0,0.552,0.448,1,1,1h10c0.552,0,1-0.448,1-1V41
						C38,38.239,35.761,36,33,36z"/>
				</g>
				<g>
					<path fill="#C80A50" d="M40,60H24v-6c0-2.209,1.791-4,4-4h8c2.209,0,4,1.791,4,4V60z"/>
				</g>
				<g>
					<path fill="#00A0C8" d="M28,50c0,2.209,1.791,4,4,4s4-1.791,4-4H28z"/>
				</g>
				<g>
					<path fill="#D2AA82" d="M32,52L32,52c-1.105,0-2-0.895-2-2v-3h4v3C34,51.105,33.105,52,32,52z"/>
				</g>
				<g>
					<path fill="#F0C8A0" d="M33,48h-2c-1.657,0-3-1.343-3-3v-3c0-1.105,0.895-2,2-2h1v0c0,1.105,0.895,2,2,2h3v3
						C36,46.657,34.657,48,33,48z"/>
				</g>
			</g>
			<g>
				<g>
					<path fill="#FAB400" d="M24,60H8v-9c0-1.657,1.343-3,3-3h10c1.657,0,3,1.343,3,3V60z"/>
				</g>
				<g>
					<path fill="#00A0C8" d="M12,48c0,2.209,1.791,4,4,4s4-1.791,4-4H12z"/>
				</g>
				<g>
					<path fill="#A00028" d="M24,54v6h1v-8.645C24.378,52.06,24,52.986,24,54z"/>
				</g>
				<g>
					<path fill="#D2AA82" d="M16,50L16,50c-1.105,0-2-0.895-2-2v-3h4v3C18,49.105,17.105,50,16,50z"/>
				</g>
				<g>
					<path fill="#F0C8A0" d="M17,46h-2c-1.657,0-3-1.343-3-3v-3c0-1.105,0.895-2,2-2h4c1.105,0,2,0.895,2,2v3
						C20,44.657,18.657,46,17,46z"/>
				</g>
				<g>
					<path fill="#0A5078" d="M18,38h-4c-1.105,0-2,0.895-2,2v0v-2c0-1.105,0.895-2,2-2h4c1.105,0,2,0.895,2,2v2v0
						C20,38.895,19.105,38,18,38z"/>
				</g>
			</g>
			<g>
				<g>
					<path fill="#00A0C8" d="M56,60H40v-9c0-1.657,1.343-3,3-3h10c1.657,0,3,1.343,3,3V60z"/>
				</g>
				<g>
					<path fill="#0A5078" d="M44,48c0,2.209,1.791,4,4,4s4-1.791,4-4H44z"/>
				</g>
				<g>
					<path fill="#0082AA" d="M40.5,49.342C40.184,49.817,40,50.387,40,51v9h1v-9C41,50.387,40.816,49.817,40.5,49.342z"/>
				</g>
				<g>
					<path fill="#D2AA82" d="M48,50L48,50c-1.105,0-2-0.895-2-2v-3h4v3C50,49.105,49.105,50,48,50z"/>
				</g>
				<g>
					<path fill="#F0C8A0" d="M49,46h-2c-1.657,0-3-1.343-3-3v-3c0-1.105,0.895-2,2-2h4c1.105,0,2,0.895,2,2v3
						C52,44.657,50.657,46,49,46z"/>
				</g>
				<g>
					<path fill="#DC9600" d="M50,38h-4c-1.105,0-2,0.895-2,2v0v-2c0-1.105,0.895-2,2-2h4c1.105,0,2,0.895,2,2v2v0
						C52,38.895,51.105,38,50,38z"/>
				</g>
			</g>
		</g>
		<g>
			<rect x="14" y="26" fill="#A00028" width="4" height="1"/>
		</g>
		<g>
			<rect x="46" y="26" fill="#DC9600" width="4" height="1"/>
		</g>
		<g>
			<rect x="18" y="14" fill="#0082AA" width="1" height="4"/>
		</g>
		<g>
			<rect x="50" y="30" fill="#0082AA" width="1" height="4"/>
		</g>
	</g>
</g>
</svg>
